<svg width="412" height="22" viewBox="0 0 412 22" fill="none" xmlns="http://www.w3.org/2000/svg">
<rect width="417" height="22" fill="#EDEBEB"/>
<path d="M204.032 15.5C206.779 15.5 209 13.258 209 10.5C209 7.74196 206.779 5.5 204.032 5.5C201.285 5.5 199.064 7.74196 199.064 10.5C199.064 13.258 201.285 15.5 204.032 15.5Z" fill="#173B89" stroke="#D1CACA"/>
<path d="M221.904 15.5C224.651 15.5 226.872 13.258 226.872 10.5C226.872 7.74196 224.651 5.5 221.904 5.5C219.157 5.5 216.936 7.74196 216.936 10.5C216.936 13.258 219.157 15.5 221.904 15.5Z" fill="#FBFCFE" stroke="#D1CACA"/>
<path d="M238.782 15.5C241.529 15.5 243.75 13.258 243.75 10.5C243.75 7.74196 241.529 5.5 238.782 5.5C236.035 5.5 233.814 7.74196 233.814 10.5C233.814 13.258 236.035 15.5 238.782 15.5Z" fill="white" stroke="#0E0000"/>
<path d="M187.154 15.5C189.901 15.5 192.122 13.258 192.122 10.5C192.122 7.74196 189.901 5.5 187.154 5.5C184.407 5.5 182.186 7.74196 182.186 10.5C182.186 13.258 184.407 15.5 187.154 15.5Z" fill="#FBFCFF" stroke="#D1CACA"/>
<path d="M169.282 15.5C172.029 15.5 174.25 13.258 174.25 10.5C174.25 7.74196 172.029 5.5 169.282 5.5C166.535 5.5 164.314 7.74196 164.314 10.5C164.314 13.258 166.535 15.5 169.282 15.5Z" fill="#FBFCFF" stroke="#D1CACA"/>
</svg>
