<svg width="334" height="43" viewBox="0 0 334 43" fill="none" xmlns="http://www.w3.org/2000/svg">
<g filter="url(#filter0_b_5_79)">
<rect width="334" height="42.8943" rx="18" fill="#1F144F"/>
<rect x="0.5" y="0.5" width="333" height="41.8943" rx="17.5" stroke="#FAF8F8"/>
</g>
<path d="M35.3493 22.8445H34.3792L34.0354 22.4593C35.2388 20.8328 35.9632 18.7212 35.9632 16.4242C35.9632 11.3022 32.3899 7.15039 27.9816 7.15039C23.5733 7.15039 20 11.3022 20 16.4242C20 21.5462 23.5733 25.698 27.9816 25.698C29.9586 25.698 31.776 24.8562 33.1758 23.458L33.5074 23.8575V24.9846L39.6471 32.1041L41.4767 29.9782L35.3493 22.8445ZM27.9816 22.8445C24.924 22.8445 22.4559 19.9768 22.4559 16.4242C22.4559 12.8716 24.924 10.0039 27.9816 10.0039C31.0392 10.0039 33.5074 12.8716 33.5074 16.4242C33.5074 19.9768 31.0392 22.8445 27.9816 22.8445Z" fill="white"/>
<path d="M56.9483 28H52.3077V14.9091H56.9867C58.3034 14.9091 59.437 15.1712 60.3873 15.6953C61.3375 16.2152 62.0684 16.9631 62.5797 17.9389C63.0953 18.9148 63.3532 20.0824 63.3532 21.4418C63.3532 22.8054 63.0953 23.9773 62.5797 24.9574C62.0684 25.9375 61.3333 26.6896 60.3745 27.2138C59.4199 27.7379 58.2779 28 56.9483 28ZM55.0755 25.6286H56.8333C57.6515 25.6286 58.3397 25.4837 58.8979 25.1939C59.4604 24.8999 59.8823 24.446 60.1635 23.8324C60.449 23.2145 60.5918 22.4176 60.5918 21.4418C60.5918 20.4744 60.449 19.6839 60.1635 19.0703C59.8823 18.4567 59.4625 18.005 58.9043 17.7152C58.3461 17.4254 57.6578 17.2805 56.8397 17.2805H55.0755V25.6286ZM65.4034 28V14.9091H74.2244V17.1911H68.1712V20.3104H73.7706V22.5923H68.1712V25.718H74.25V28H65.4034ZM83.5265 18.674C83.4753 18.1584 83.2559 17.7578 82.8681 17.4723C82.4803 17.1868 81.954 17.044 81.2892 17.044C80.8375 17.044 80.4561 17.108 80.1451 17.2358C79.834 17.3594 79.5953 17.532 79.4292 17.7536C79.2672 17.9751 79.1863 18.2266 79.1863 18.5078C79.1777 18.7422 79.2267 18.9467 79.3333 19.1214C79.4441 19.2962 79.5953 19.4474 79.7871 19.5753C79.9789 19.6989 80.2005 19.8075 80.4519 19.9013C80.7033 19.9908 80.9718 20.0675 81.2573 20.1314L82.4334 20.4126C83.0044 20.5405 83.5286 20.7109 84.0059 20.924C84.4831 21.1371 84.8965 21.3991 85.2459 21.7102C85.5953 22.0213 85.8659 22.3878 86.0577 22.8097C86.2537 23.2315 86.3539 23.7152 86.3581 24.2607C86.3539 25.0618 86.1493 25.7564 85.7445 26.3445C85.3439 26.9283 84.7644 27.3821 84.0059 27.706C83.2516 28.0256 82.3418 28.1854 81.2765 28.1854C80.2196 28.1854 79.2992 28.0234 78.5151 27.6996C77.7353 27.3757 77.1259 26.8963 76.687 26.2614C76.2523 25.6222 76.0243 24.8317 76.003 23.8899H78.6813C78.7111 24.3288 78.8368 24.6953 79.0584 24.9893C79.2843 25.2791 79.5847 25.4986 79.9597 25.6477C80.339 25.7926 80.7672 25.8651 81.2445 25.8651C81.7132 25.8651 82.1202 25.7969 82.4654 25.6605C82.8148 25.5241 83.0854 25.3345 83.2772 25.0916C83.4689 24.8487 83.5648 24.5696 83.5648 24.2543C83.5648 23.9602 83.4775 23.7131 83.3027 23.5128C83.1323 23.3125 82.8809 23.142 82.5485 23.0014C82.2203 22.8608 81.8176 22.733 81.3404 22.6179L79.915 22.2599C78.8113 21.9915 77.9398 21.5717 77.3006 21.0007C76.6614 20.4297 76.3439 19.6605 76.3482 18.6932C76.3439 17.9006 76.5549 17.2081 76.981 16.6158C77.4114 16.0234 78.0016 15.5611 78.7516 15.2287C79.5016 14.8963 80.3539 14.7301 81.3084 14.7301C82.28 14.7301 83.128 14.8963 83.8525 15.2287C84.5811 15.5611 85.1479 16.0234 85.5527 16.6158C85.9576 17.2081 86.1664 17.8942 86.1792 18.674H83.5265ZM99.7702 19.4922H96.9705C96.9194 19.13 96.815 18.8082 96.6573 18.527C96.4996 18.2415 96.2972 17.9986 96.0501 17.7983C95.8029 17.598 95.5174 17.4446 95.1935 17.3381C94.8739 17.2315 94.5266 17.1783 94.1516 17.1783C93.4741 17.1783 92.8839 17.3466 92.381 17.6832C91.8782 18.0156 91.4883 18.5014 91.2113 19.1406C90.9343 19.7756 90.7958 20.5469 90.7958 21.4545C90.7958 22.3878 90.9343 23.1719 91.2113 23.8068C91.4925 24.4418 91.8846 24.9212 92.3874 25.245C92.8903 25.5689 93.4719 25.7308 94.1325 25.7308C94.5032 25.7308 94.8462 25.6818 95.1616 25.5838C95.4812 25.4858 95.7646 25.343 96.0117 25.1555C96.2589 24.9638 96.4634 24.7315 96.6254 24.4588C96.7915 24.1861 96.9066 23.875 96.9705 23.5256L99.7702 23.5384C99.6978 24.1392 99.5167 24.7188 99.2269 25.277C98.9414 25.831 98.5558 26.3274 98.07 26.7663C97.5884 27.201 97.0131 27.5462 96.3441 27.8018C95.6793 28.0533 94.9272 28.179 94.0877 28.179C92.9201 28.179 91.8761 27.9148 90.9556 27.3864C90.0394 26.858 89.315 26.093 88.7823 25.0916C88.2539 24.0902 87.9897 22.8778 87.9897 21.4545C87.9897 20.027 88.2582 18.8125 88.7951 17.8111C89.332 16.8097 90.0607 16.0469 90.9812 15.5227C91.9016 14.9943 92.9371 14.7301 94.0877 14.7301C94.8462 14.7301 95.5494 14.8366 96.1971 15.0497C96.8491 15.2628 97.4265 15.5739 97.9293 15.983C98.4322 16.3878 98.8413 16.8842 99.1566 17.4723C99.4762 18.0604 99.6808 18.7337 99.7702 19.4922ZM109.841 14.9091H112.609V23.4105C112.609 24.3651 112.381 25.2003 111.925 25.9162C111.473 26.6321 110.84 27.1903 110.026 27.5909C109.212 27.9872 108.264 28.1854 107.182 28.1854C106.095 28.1854 105.145 27.9872 104.331 27.5909C103.517 27.1903 102.884 26.6321 102.433 25.9162C101.981 25.2003 101.755 24.3651 101.755 23.4105V14.9091H104.523V23.174C104.523 23.6726 104.631 24.1158 104.849 24.5036C105.07 24.8913 105.381 25.196 105.782 25.4176C106.183 25.6392 106.649 25.75 107.182 25.75C107.719 25.75 108.185 25.6392 108.582 25.4176C108.982 25.196 109.291 24.8913 109.509 24.5036C109.73 24.1158 109.841 23.6726 109.841 23.174V14.9091ZM114.886 28V14.9091H120.127C121.09 14.9091 121.894 15.0518 122.537 15.3374C123.181 15.6229 123.664 16.0192 123.988 16.5263C124.312 17.0291 124.474 17.6087 124.474 18.2649C124.474 18.7763 124.372 19.2259 124.167 19.6136C123.963 19.9972 123.681 20.3125 123.323 20.5597C122.97 20.8026 122.565 20.9751 122.109 21.0774V21.2053C122.607 21.2266 123.074 21.3672 123.509 21.6271C123.948 21.8871 124.303 22.2514 124.576 22.7202C124.849 23.1847 124.985 23.7386 124.985 24.3821C124.985 25.0767 124.813 25.6967 124.468 26.2422C124.127 26.7834 123.622 27.2116 122.953 27.527C122.284 27.8423 121.459 28 120.479 28H114.886ZM117.654 25.7372H119.91C120.681 25.7372 121.244 25.5902 121.597 25.2962C121.951 24.9979 122.128 24.6016 122.128 24.1072C122.128 23.745 122.041 23.4254 121.866 23.1484C121.691 22.8714 121.442 22.6541 121.118 22.4964C120.798 22.3388 120.417 22.2599 119.974 22.2599H117.654V25.7372ZM117.654 20.3871H119.705C120.085 20.3871 120.421 20.321 120.715 20.1889C121.014 20.0526 121.248 19.8608 121.419 19.6136C121.593 19.3665 121.681 19.0703 121.681 18.7251C121.681 18.2521 121.512 17.8707 121.176 17.581C120.843 17.2912 120.37 17.1463 119.757 17.1463H117.654V20.3871ZM126.786 28V14.9091H131.951C132.94 14.9091 133.783 15.0859 134.482 15.4396C135.185 15.7891 135.72 16.2855 136.087 16.929C136.457 17.5682 136.643 18.3203 136.643 19.1854C136.643 20.0547 136.455 20.8026 136.08 21.429C135.705 22.0511 135.162 22.5284 134.45 22.8608C133.743 23.1932 132.886 23.3594 131.881 23.3594H128.423V21.1349H131.433C131.962 21.1349 132.401 21.0625 132.75 20.9176C133.099 20.7727 133.359 20.5554 133.53 20.2656C133.705 19.9759 133.792 19.6158 133.792 19.1854C133.792 18.7507 133.705 18.3842 133.53 18.0859C133.359 17.7876 133.097 17.5618 132.744 17.4084C132.394 17.2507 131.953 17.1719 131.42 17.1719H129.554V28H126.786ZM133.856 22.0426L137.109 28H134.054L130.871 22.0426H133.856ZM140.855 28H137.889L142.408 14.9091H145.975L150.488 28H147.522L144.243 17.9006H144.141L140.855 28ZM140.67 22.8544H147.675V25.0149H140.67V22.8544ZM163.331 18.674C163.28 18.1584 163.061 17.7578 162.673 17.4723C162.285 17.1868 161.759 17.044 161.094 17.044C160.642 17.044 160.261 17.108 159.95 17.2358C159.639 17.3594 159.4 17.532 159.234 17.7536C159.072 17.9751 158.991 18.2266 158.991 18.5078C158.982 18.7422 159.031 18.9467 159.138 19.1214C159.249 19.2962 159.4 19.4474 159.592 19.5753C159.784 19.6989 160.005 19.8075 160.257 19.9013C160.508 19.9908 160.776 20.0675 161.062 20.1314L162.238 20.4126C162.809 20.5405 163.333 20.7109 163.811 20.924C164.288 21.1371 164.701 21.3991 165.051 21.7102C165.4 22.0213 165.671 22.3878 165.862 22.8097C166.058 23.2315 166.159 23.7152 166.163 24.2607C166.159 25.0618 165.954 25.7564 165.549 26.3445C165.149 26.9283 164.569 27.3821 163.811 27.706C163.056 28.0256 162.146 28.1854 161.081 28.1854C160.024 28.1854 159.104 28.0234 158.32 27.6996C157.54 27.3757 156.931 26.8963 156.492 26.2614C156.057 25.6222 155.829 24.8317 155.808 23.8899H158.486C158.516 24.3288 158.642 24.6953 158.863 24.9893C159.089 25.2791 159.389 25.4986 159.764 25.6477C160.144 25.7926 160.572 25.8651 161.049 25.8651C161.518 25.8651 161.925 25.7969 162.27 25.6605C162.619 25.5241 162.89 25.3345 163.082 25.0916C163.274 24.8487 163.369 24.5696 163.369 24.2543C163.369 23.9602 163.282 23.7131 163.107 23.5128C162.937 23.3125 162.686 23.142 162.353 23.0014C162.025 22.8608 161.622 22.733 161.145 22.6179L159.72 22.2599C158.616 21.9915 157.744 21.5717 157.105 21.0007C156.466 20.4297 156.149 19.6605 156.153 18.6932C156.149 17.9006 156.36 17.2081 156.786 16.6158C157.216 16.0234 157.806 15.5611 158.556 15.2287C159.306 14.8963 160.159 14.7301 161.113 14.7301C162.085 14.7301 162.933 14.8963 163.657 15.2287C164.386 15.5611 164.953 16.0234 165.357 16.6158C165.762 17.2081 165.971 17.8942 165.984 18.674H163.331ZM168.025 28V14.9091H176.846V17.1911H170.792V20.3104H176.392V22.5923H170.792V25.718H176.871V28H168.025ZM187.132 14.9091H189.9V23.4105C189.9 24.3651 189.672 25.2003 189.216 25.9162C188.764 26.6321 188.131 27.1903 187.317 27.5909C186.503 27.9872 185.555 28.1854 184.473 28.1854C183.386 28.1854 182.436 27.9872 181.622 27.5909C180.808 27.1903 180.175 26.6321 179.724 25.9162C179.272 25.2003 179.046 24.3651 179.046 23.4105V14.9091H181.814V23.174C181.814 23.6726 181.922 24.1158 182.14 24.5036C182.361 24.8913 182.672 25.196 183.073 25.4176C183.474 25.6392 183.94 25.75 184.473 25.75C185.01 25.75 185.476 25.6392 185.873 25.4176C186.273 25.196 186.582 24.8913 186.8 24.5036C187.021 24.1158 187.132 23.6726 187.132 23.174V14.9091ZM207.893 19.4922H205.094C205.042 19.13 204.938 18.8082 204.78 18.527C204.623 18.2415 204.42 17.9986 204.173 17.7983C203.926 17.598 203.64 17.4446 203.317 17.3381C202.997 17.2315 202.65 17.1783 202.275 17.1783C201.597 17.1783 201.007 17.3466 200.504 17.6832C200.001 18.0156 199.611 18.5014 199.334 19.1406C199.057 19.7756 198.919 20.5469 198.919 21.4545C198.919 22.3878 199.057 23.1719 199.334 23.8068C199.616 24.4418 200.008 24.9212 200.51 25.245C201.013 25.5689 201.595 25.7308 202.256 25.7308C202.626 25.7308 202.969 25.6818 203.285 25.5838C203.604 25.4858 203.888 25.343 204.135 25.1555C204.382 24.9638 204.586 24.7315 204.748 24.4588C204.915 24.1861 205.03 23.875 205.094 23.5256L207.893 23.5384C207.821 24.1392 207.64 24.7188 207.35 25.277C207.064 25.831 206.679 26.3274 206.193 26.7663C205.711 27.201 205.136 27.5462 204.467 27.8018C203.802 28.0533 203.05 28.179 202.211 28.179C201.043 28.179 199.999 27.9148 199.079 27.3864C198.162 26.858 197.438 26.093 196.905 25.0916C196.377 24.0902 196.113 22.8778 196.113 21.4545C196.113 20.027 196.381 18.8125 196.918 17.8111C197.455 16.8097 198.184 16.0469 199.104 15.5227C200.025 14.9943 201.06 14.7301 202.211 14.7301C202.969 14.7301 203.672 14.8366 204.32 15.0497C204.972 15.2628 205.55 15.5739 206.052 15.983C206.555 16.3878 206.964 16.8842 207.28 17.4723C207.599 18.0604 207.804 18.7337 207.893 19.4922ZM217.964 14.9091H220.732V23.4105C220.732 24.3651 220.504 25.2003 220.048 25.9162C219.596 26.6321 218.963 27.1903 218.149 27.5909C217.335 27.9872 216.387 28.1854 215.305 28.1854C214.218 28.1854 213.268 27.9872 212.454 27.5909C211.64 27.1903 211.007 26.6321 210.556 25.9162C210.104 25.2003 209.878 24.3651 209.878 23.4105V14.9091H212.646V23.174C212.646 23.6726 212.754 24.1158 212.972 24.5036C213.193 24.8913 213.504 25.196 213.905 25.4176C214.306 25.6392 214.772 25.75 215.305 25.75C215.842 25.75 216.308 25.6392 216.705 25.4176C217.105 25.196 217.414 24.8913 217.632 24.5036C217.853 24.1158 217.964 23.6726 217.964 23.174V14.9091ZM223.009 28V14.9091H228.174C229.162 14.9091 230.006 15.0859 230.705 15.4396C231.408 15.7891 231.943 16.2855 232.309 16.929C232.68 17.5682 232.865 18.3203 232.865 19.1854C232.865 20.0547 232.678 20.8026 232.303 21.429C231.928 22.0511 231.385 22.5284 230.673 22.8608C229.966 23.1932 229.109 23.3594 228.103 23.3594H224.645V21.1349H227.656C228.184 21.1349 228.623 21.0625 228.973 20.9176C229.322 20.7727 229.582 20.5554 229.752 20.2656C229.927 19.9759 230.015 19.6158 230.015 19.1854C230.015 18.7507 229.927 18.3842 229.752 18.0859C229.582 17.7876 229.32 17.5618 228.966 17.4084C228.617 17.2507 228.176 17.1719 227.643 17.1719H225.777V28H223.009ZM230.078 22.0426L233.332 28H230.277L227.093 22.0426H230.078ZM241.923 18.674C241.872 18.1584 241.652 17.7578 241.265 17.4723C240.877 17.1868 240.35 17.044 239.686 17.044C239.234 17.044 238.853 17.108 238.542 17.2358C238.23 17.3594 237.992 17.532 237.826 17.7536C237.664 17.9751 237.583 18.2266 237.583 18.5078C237.574 18.7422 237.623 18.9467 237.73 19.1214C237.841 19.2962 237.992 19.4474 238.184 19.5753C238.375 19.6989 238.597 19.8075 238.848 19.9013C239.1 19.9908 239.368 20.0675 239.654 20.1314L240.83 20.4126C241.401 20.5405 241.925 20.7109 242.402 20.924C242.88 21.1371 243.293 21.3991 243.642 21.7102C243.992 22.0213 244.262 22.3878 244.454 22.8097C244.65 23.2315 244.75 23.7152 244.755 24.2607C244.75 25.0618 244.546 25.7564 244.141 26.3445C243.74 26.9283 243.161 27.3821 242.402 27.706C241.648 28.0256 240.738 28.1854 239.673 28.1854C238.616 28.1854 237.696 28.0234 236.912 27.6996C236.132 27.3757 235.522 26.8963 235.083 26.2614C234.649 25.6222 234.421 24.8317 234.4 23.8899H237.078C237.108 24.3288 237.233 24.6953 237.455 24.9893C237.681 25.2791 237.981 25.4986 238.356 25.6477C238.735 25.7926 239.164 25.8651 239.641 25.8651C240.11 25.8651 240.517 25.7969 240.862 25.6605C241.211 25.5241 241.482 25.3345 241.674 25.0916C241.865 24.8487 241.961 24.5696 241.961 24.2543C241.961 23.9602 241.874 23.7131 241.699 23.5128C241.529 23.3125 241.277 23.142 240.945 23.0014C240.617 22.8608 240.214 22.733 239.737 22.6179L238.311 22.2599C237.208 21.9915 236.336 21.5717 235.697 21.0007C235.058 20.4297 234.74 19.6605 234.745 18.6932C234.74 17.9006 234.951 17.2081 235.377 16.6158C235.808 16.0234 236.398 15.5611 237.148 15.2287C237.898 14.8963 238.75 14.7301 239.705 14.7301C240.676 14.7301 241.525 14.8963 242.249 15.2287C242.978 15.5611 243.544 16.0234 243.949 16.6158C244.354 17.2081 244.563 17.8942 244.576 18.674H241.923ZM258.646 21.4545C258.646 22.8821 258.376 24.0966 257.834 25.098C257.297 26.0994 256.564 26.8643 255.635 27.3928C254.711 27.9169 253.671 28.179 252.516 28.179C251.353 28.179 250.309 27.9148 249.384 27.3864C248.459 26.858 247.729 26.093 247.192 25.0916C246.655 24.0902 246.386 22.8778 246.386 21.4545C246.386 20.027 246.655 18.8125 247.192 17.8111C247.729 16.8097 248.459 16.0469 249.384 15.5227C250.309 14.9943 251.353 14.7301 252.516 14.7301C253.671 14.7301 254.711 14.9943 255.635 15.5227C256.564 16.0469 257.297 16.8097 257.834 17.8111C258.376 18.8125 258.646 20.027 258.646 21.4545ZM255.84 21.4545C255.84 20.5298 255.702 19.75 255.425 19.1151C255.152 18.4801 254.766 17.9986 254.268 17.6705C253.769 17.3423 253.185 17.1783 252.516 17.1783C251.847 17.1783 251.263 17.3423 250.765 17.6705C250.266 17.9986 249.878 18.4801 249.601 19.1151C249.329 19.75 249.192 20.5298 249.192 21.4545C249.192 22.3793 249.329 23.1591 249.601 23.794C249.878 24.429 250.266 24.9105 250.765 25.2386C251.263 25.5668 251.847 25.7308 252.516 25.7308C253.185 25.7308 253.769 25.5668 254.268 25.2386C254.766 24.9105 255.152 24.429 255.425 23.794C255.702 23.1591 255.84 22.3793 255.84 21.4545ZM267.119 28H264.153L268.672 14.9091H272.239L276.752 28H273.786L270.507 17.9006H270.404L267.119 28ZM266.933 22.8544H273.939V25.0149H266.933V22.8544ZM282.653 23.4489H285.005L286.188 24.9702L287.351 26.3253L289.544 29.0739H286.961L285.453 27.2202L284.679 26.1207L282.653 23.4489ZM289.742 21.4545C289.742 22.8821 289.471 24.0966 288.93 25.098C288.393 26.0994 287.66 26.8643 286.731 27.3928C285.806 27.9169 284.767 28.179 283.612 28.179C282.449 28.179 281.404 27.9148 280.48 27.3864C279.555 26.858 278.824 26.093 278.287 25.0916C277.75 24.0902 277.482 22.8778 277.482 21.4545C277.482 20.027 277.75 18.8125 278.287 17.8111C278.824 16.8097 279.555 16.0469 280.48 15.5227C281.404 14.9943 282.449 14.7301 283.612 14.7301C284.767 14.7301 285.806 14.9943 286.731 15.5227C287.66 16.0469 288.393 16.8097 288.93 17.8111C289.471 18.8125 289.742 20.027 289.742 21.4545ZM286.936 21.4545C286.936 20.5298 286.797 19.75 286.52 19.1151C286.248 18.4801 285.862 17.9986 285.363 17.6705C284.865 17.3423 284.281 17.1783 283.612 17.1783C282.943 17.1783 282.359 17.3423 281.86 17.6705C281.362 17.9986 280.974 18.4801 280.697 19.1151C280.424 19.75 280.288 20.5298 280.288 21.4545C280.288 22.3793 280.424 23.1591 280.697 23.794C280.974 24.429 281.362 24.9105 281.86 25.2386C282.359 25.5668 282.943 25.7308 283.612 25.7308C284.281 25.7308 284.865 25.5668 285.363 25.2386C285.862 24.9105 286.248 24.429 286.52 23.794C286.797 23.1591 286.936 22.3793 286.936 21.4545ZM299.878 14.9091H302.646V23.4105C302.646 24.3651 302.418 25.2003 301.962 25.9162C301.51 26.6321 300.877 27.1903 300.063 27.5909C299.249 27.9872 298.301 28.1854 297.219 28.1854C296.132 28.1854 295.182 27.9872 294.368 27.5909C293.554 27.1903 292.921 26.6321 292.47 25.9162C292.018 25.2003 291.792 24.3651 291.792 23.4105V14.9091H294.56V23.174C294.56 23.6726 294.669 24.1158 294.886 24.5036C295.107 24.8913 295.419 25.196 295.819 25.4176C296.22 25.6392 296.686 25.75 297.219 25.75C297.756 25.75 298.222 25.6392 298.619 25.4176C299.019 25.196 299.328 24.8913 299.546 24.5036C299.767 24.1158 299.878 23.6726 299.878 23.174V14.9091ZM307.691 14.9091V28H304.923V14.9091H307.691Z" fill="#FFFBFB"/>
<defs>
<filter id="filter0_b_5_79" x="-4" y="-4" width="342" height="50.8945" filterUnits="userSpaceOnUse" color-interpolation-filters="sRGB">
<feFlood flood-opacity="0" result="BackgroundImageFix"/>
<feGaussianBlur in="BackgroundImageFix" stdDeviation="2"/>
<feComposite in2="SourceAlpha" operator="in" result="effect1_backgroundBlur_5_79"/>
<feBlend mode="normal" in="SourceGraphic" in2="effect1_backgroundBlur_5_79" result="shape"/>
</filter>
</defs>
</svg>
